# xmcd
#
# Track frame offsets:
# 150
# 37416
# 70789
# 99439
# 127535
# 151884
# 187991
# 227639
# 274818
#
# Disc length: 4327 seconds
#
# Revision: 0
# Processed by: cddbd v1.5.2PL0 Copyright (c) Steve Scherf et al.
# Submitted via: Audion 3.0.2 (http://www.panic.com/audion/)
#
DISCID=6e10e509
DTITLE=c lier - c lier
DYEAR=1900
DGENRE=
TTITLE0=12
TTITLE1=13
TTITLE2=14
TTITLE3=15
TTITLE4=16
TTITLE5=17
TTITLE6=18
TTITLE7=19
TTITLE8=20
EXTD=
EXTT0=
EXTT1=
EXTT2=
EXTT3=
EXTT4=
EXTT5=
EXTT6=
EXTT7=
EXTT8=
PLAYORDER=
